<svg width="17.766113" height="13.322266" viewBox="0 0 17.7661 13.3223" fill="none" xmlns="http://www.w3.org/2000/svg" xmlns:xlink="http://www.w3.org/1999/xlink">
	<desc>
			Created with Pixso.
	</desc>
	<defs/>
	<path id="Arrow 1" d="M2.41846 6.66113L7.36816 1.71094C7.76416 1.31543 7.76416 0.693359 7.36816 0.296875C6.97217 -0.0986328 6.3501 -0.0986328 5.9541 0.296875L0.296875 5.9541C-0.0991211 6.34961 -0.0991211 6.97266 0.296875 7.36816L5.9541 13.0254C6.3501 13.4209 6.97217 13.4209 7.36816 13.0254C7.76416 12.6289 7.76416 12.0068 7.36816 11.6113L2.41846 6.66113Z" fill="#FAF4EA" fill-opacity="0.700000" fill-rule="nonzero"/>
	<path id="Arrow 1" d="M17.7661 5.66113L1.00439 5.66113L1.00439 7.66113L17.7661 7.66113L17.7661 5.66113ZM2.41846 6.66113L7.36816 1.71094C7.76416 1.31543 7.76416 0.693359 7.36816 0.296875C6.97217 -0.0986328 6.3501 -0.0986328 5.9541 0.296875L0.296875 5.9541C-0.0991211 6.34961 -0.0991211 6.97266 0.296875 7.36816L5.9541 13.0254C6.3501 13.4209 6.97217 13.4209 7.36816 13.0254C7.76416 12.6289 7.76416 12.0068 7.36816 11.6113L2.41846 6.66113Z" fill="#31261A" fill-opacity="1.000000" fill-rule="evenodd"/>
</svg>
