<!-- Generated by IcoMoon.io -->
<svg version="1.1" xmlns="http://www.w3.org/2000/svg" width="1024" height="1024" viewBox="0 0 1024 1024">
<title></title>
<g id="icomoon-ignore">
</g>
<path fill="#faf4ea" opacity="0.7" d="M0 512c0 282.77 229.23 512 512 512s512-229.23 512-512c0-282.77-229.23-512-512-512s-512 229.23-512 512z"></path>
<path fill="none" stroke="#31261a" stroke-linejoin="miter" stroke-linecap="butt" stroke-miterlimit="4" stroke-width="17.8787" d="M8.939 512c0 277.833 225.228 503.061 503.061 503.061s503.061-225.228 503.061-503.061c0-277.833-225.228-503.061-503.061-503.061s-503.061 225.228-503.061 503.061z"></path>
<path fill="#31261a" d="M314.903 528.456c-9.088-9.088-9.088-23.824 0-32.912l148.105-148.108c9.090-9.088 23.824-9.088 32.915 0 9.088 9.090 9.088 23.824 0 32.912l-131.651 131.651 131.651 131.651c9.088 9.088 9.088 23.822 0 32.912-9.090 9.088-23.824 9.088-32.915 0l-148.105-148.108zM721.455 535.273h-390.095v-46.545h390.095v46.545z"></path>
</svg>
