<svg width="32.000000" height="32.000000" viewBox="0 0 32 32" fill="none" xmlns="http://www.w3.org/2000/svg" xmlns:xlink="http://www.w3.org/1999/xlink">
	<desc>
			Created with Pixso.
	</desc>
	<defs>
		<clipPath id="clip308_49">
			<rect id="facebook_black_logo_icon_147136 1" width="32.000000" height="32.000000" fill="white" fill-opacity="0"/>
		</clipPath>
	</defs>
	<rect id="facebook_black_logo_icon_147136 1" width="32.000000" height="32.000000" fill="#E7D7BE" fill-opacity="0"/>
	<g clip-path="url(#clip308_49)">
		<path id="Vector" d="M0 16C0 7.16309 7.16357 0 16 0C24.8364 0 32 7.16309 32 16C32 24.8369 24.8364 32 16 32C7.16357 32 0 24.8369 0 16ZM17.668 25.4072L17.668 16.7031L20.0708 16.7031L20.3892 13.7031L17.668 13.7031L17.6719 12.2021C17.6719 11.4189 17.7461 11 18.8696 11L20.3721 11L20.3721 8L17.9688 8C15.082 8 14.0659 9.45508 14.0659 11.9023L14.0659 13.7031L12.2666 13.7031L12.2666 16.7031L14.0659 16.7031L14.0659 25.4072L17.668 25.4072Z" fill="#FAF4EA" fill-opacity="1.000000" fill-rule="evenodd"/>
	</g>
</svg>
