<svg width="32.000000" height="32.000000" viewBox="0 0 32 32" fill="none" xmlns="http://www.w3.org/2000/svg" xmlns:xlink="http://www.w3.org/1999/xlink">
	<desc>
			Created with Pixso.
	</desc>
	<defs>
		<clipPath id="clip308_51">
			<rect id="instagram_black_logo_icon_147122 1" width="32.000000" height="32.000000" fill="white" fill-opacity="0"/>
		</clipPath>
	</defs>
	<rect id="instagram_black_logo_icon_147122 1" width="32.000000" height="32.000000" fill="#E7D7BE" fill-opacity="0"/>
	<g clip-path="url(#clip308_51)">
		<path id="Vector" d="M0 16C0 7.16309 7.16357 0 16 0C24.8364 0 32 7.16309 32 16C32 24.8369 24.8364 32 16 32C7.16357 32 0 24.8369 0 16ZM16.001 7.4668C13.6831 7.4668 13.3926 7.47656 12.4824 7.51855C11.5737 7.55957 10.9536 7.7041 10.4111 7.91504C9.84961 8.13281 9.37354 8.42383 8.89941 8.89844C8.4248 9.37305 8.1333 9.84863 7.91455 10.4102C7.70312 10.9531 7.55908 11.5732 7.51807 12.4814C7.47754 13.3916 7.4668 13.6826 7.4668 16C7.4668 18.3174 7.47705 18.6074 7.51807 19.5176C7.56006 20.4258 7.70361 21.0459 7.91455 21.5889C8.13281 22.1504 8.42432 22.626 8.89893 23.1006C9.37305 23.5752 9.84912 23.8672 10.4102 24.0859C10.9531 24.2969 11.5732 24.4404 12.4814 24.4824C13.3916 24.5234 13.6826 24.5332 15.9995 24.5332C18.3174 24.5332 18.6074 24.5234 19.5176 24.4824C20.4263 24.4404 21.0469 24.2969 21.5898 24.0859C22.1509 23.8672 22.6265 23.5752 23.1006 23.1006C23.5752 22.626 23.8667 22.1504 24.0854 21.5889C24.2949 21.0459 24.439 20.4258 24.4819 19.5176C24.5225 18.6074 24.5332 18.3174 24.5332 16C24.5332 13.6826 24.5225 13.3916 24.4819 12.4814C24.439 11.5732 24.2949 10.9531 24.0854 10.4102C23.8667 9.84863 23.5752 9.37305 23.1006 8.89844C22.626 8.42383 22.1509 8.13281 21.5894 7.91504C21.0454 7.7041 20.4248 7.55957 19.5166 7.51855C18.606 7.47656 18.3164 7.4668 15.998 7.4668L16.001 7.4668Z" fill="#FAF4EA" fill-opacity="1.000000" fill-rule="evenodd"/>
		<path id="Vector" d="M15.2349 9.00488C15.4619 9.00488 15.7158 9.00488 16.0005 9.00488C18.2788 9.00488 18.5488 9.01367 19.4487 9.05371C20.2808 9.0918 20.7324 9.23145 21.0332 9.34766C21.4312 9.50293 21.7153 9.6875 22.0137 9.98633C22.3125 10.2852 22.4971 10.5693 22.6523 10.9678C22.769 11.2676 22.9082 11.7197 22.9463 12.5518C22.9868 13.4512 22.9961 13.7217 22.9961 15.999C22.9961 18.2764 22.9868 18.5459 22.9463 19.4463C22.9082 20.2783 22.769 20.7295 22.6523 21.0303C22.4976 21.4277 22.3125 21.7119 22.0137 22.0098C21.7148 22.3086 21.4316 22.4941 21.0332 22.6484C20.7324 22.7656 20.2808 22.9043 19.4487 22.9424C18.5493 22.9834 18.2788 22.9922 16.0005 22.9922C13.7217 22.9922 13.4517 22.9834 12.5522 22.9424C11.7202 22.9043 11.2686 22.7646 10.9678 22.6484C10.5693 22.4932 10.2852 22.3086 9.98633 22.0098C9.6875 21.7109 9.50293 21.4277 9.34766 21.0293C9.23096 20.7285 9.0918 20.2773 9.05371 19.4453C9.01318 18.5459 9.00488 18.2754 9.00488 15.9971C9.00488 13.7178 9.01318 13.4492 9.05371 12.5498C9.0918 11.7178 9.23096 11.2656 9.34766 10.9648C9.50244 10.5664 9.6875 10.2822 9.98633 9.9834C10.2852 9.68555 10.5693 9.5 10.9678 9.34473C11.2686 9.22754 11.7202 9.08887 12.5522 9.05078C13.3394 9.01562 13.6445 9.00488 15.2349 9.00293L15.2349 9.00488ZM20.5557 10.4219C19.9902 10.4219 19.5317 10.8799 19.5317 11.4453C19.5317 12.0107 19.9902 12.4697 20.5557 12.4697C21.1211 12.4697 21.5796 12.0107 21.5796 11.4453C21.5796 10.8799 21.1211 10.4219 20.5557 10.4219ZM16.0005 11.6182C13.5806 11.6182 11.6182 13.5811 11.6182 16.001C11.6182 18.4209 13.5806 20.3818 16.0005 20.3818C18.4204 20.3818 20.3818 18.4209 20.3818 16.001C20.3818 13.5811 18.4204 11.6182 16.0005 11.6182Z" fill="#FAF4EA" fill-opacity="1.000000" fill-rule="evenodd"/>
		<path id="Vector" d="M16.0005 13.1553C17.5718 13.1553 18.8452 14.4287 18.8452 16C18.8452 17.5703 17.5718 18.8438 16.0005 18.8438C14.4297 18.8438 13.1562 17.5703 13.1562 16C13.1562 14.4287 14.4297 13.1553 16.0005 13.1553Z" fill="#FAF4EA" fill-opacity="1.000000" fill-rule="evenodd"/>
	</g>
</svg>
