<svg xmlns="http://www.w3.org/2000/svg" width="108" height="46" fill="none" viewBox="0 0 108 46">
  <path fill="#FAF4EA" d="M5.86 10.633 4.077 9.555c-1.117-.68-1.914-1.348-2.39-2.004-.47-.664-.704-1.426-.704-2.285 0-1.29.446-2.336 1.336-3.141C3.22 1.32 4.383.918 5.813.918c1.367 0 2.62.383 3.761 1.148v2.66c-1.18-1.132-2.449-1.699-3.808-1.699-.766 0-1.395.18-1.887.54-.492.351-.738.804-.738 1.359 0 .492.18.953.539 1.383.36.43.941.878 1.746 1.347l1.793 1.055c2 1.187 3 2.703 3 4.547 0 1.312-.442 2.379-1.324 3.199-.875.82-2.016 1.23-3.422 1.23-1.618 0-3.09-.496-4.418-1.488v-2.976c1.265 1.601 2.73 2.402 4.394 2.402.735 0 1.344-.203 1.828-.61.493-.413.739-.93.739-1.546 0-1-.72-1.946-2.157-2.836Zm18.48-9.504h2.344V17.5H24.34v-7.125h-9.2V17.5h-2.343V1.129h2.344v7.078h9.199V1.129ZM38.344.895c2.531 0 4.636.8 6.316 2.402 1.688 1.601 2.531 3.61 2.531 6.023 0 2.414-.851 4.414-2.554 6-1.696 1.578-3.836 2.367-6.422 2.367-2.469 0-4.528-.789-6.176-2.367-1.64-1.586-2.46-3.57-2.46-5.953 0-2.445.827-4.469 2.483-6.07C33.72 1.695 35.813.895 38.344.895Zm.093 2.226c-1.874 0-3.417.586-4.628 1.758-1.203 1.172-1.805 2.668-1.805 4.488 0 1.766.605 3.235 1.816 4.406 1.211 1.172 2.727 1.758 4.547 1.758 1.828 0 3.352-.597 4.57-1.793 1.227-1.195 1.84-2.683 1.84-4.465 0-1.734-.613-3.191-1.84-4.37-1.218-1.188-2.718-1.782-4.5-1.782ZM49.934 17.5V1.105h5.191c1.563 0 2.809.422 3.738 1.266.93.844 1.395 1.977 1.395 3.399 0 .953-.239 1.796-.715 2.53a4.122 4.122 0 0 1-1.957 1.606c-.828.328-2.016.492-3.563.492H52.29V17.5h-2.355Zm4.78-14.309H52.29v5.122h2.566c.954 0 1.688-.223 2.204-.668.515-.454.773-1.098.773-1.934 0-1.68-1.039-2.52-3.117-2.52ZM16.876 40.895c0 1.398-.48 2.515-1.441 3.351-.954.836-2.29 1.254-4.008 1.254H2.039V29.258h7.852c1.015 0 1.898.098 2.648.293.758.195 1.367.465 1.828.808.461.336.805.735 1.031 1.196.227.46.34.965.34 1.511a3.99 3.99 0 0 1-1.23 2.895c-.344.32-.692.547-1.043.68 1.11.437 1.953.992 2.531 1.664.586.664.879 1.527.879 2.59Zm-5.719-6.961c0-.782-.258-1.301-.773-1.559-.516-.258-1.32-.387-2.414-.387H6.937v3.89h1.055c1.117 0 1.922-.128 2.414-.386.5-.258.75-.777.75-1.558Zm.797 6.761c0-1.39-1.008-2.086-3.023-2.086H6.938v4.16H8.93c2.015 0 3.023-.69 3.023-2.074ZM37.148 45.5h-5.015l-1.324-3.293h-7.055L22.406 45.5h-5.015l7.183-16.242h5.414l7.16 16.242Zm-7.464-6.117-2.38-5.93-2.402 5.93h4.782ZM56.39 45.5h-5.977l-6.21-7.605V45.5h-4.9V29.258h4.9v7.265l5.882-7.265h5.32l-6.047 7.605L56.39 45.5Zm14.378 0H58.523V29.258H70.57v3.258h-7.148v2.976h6.82v3.27h-6.82v3.468h7.347v3.27Zm19.02 0h-5.262l-1.277-2.883c-.469-1.054-.89-1.824-1.266-2.308-.375-.493-.742-.805-1.101-.938-.352-.14-.809-.21-1.371-.21h-.551V45.5h-4.898V29.258h8.331c1.344 0 2.446.273 3.305.82.86.547 1.477 1.211 1.852 1.992.383.782.574 1.524.574 2.227 0 .82-.16 1.516-.48 2.086-.313.562-.645.972-.997 1.23a9.925 9.925 0 0 1-1.183.739 4.54 4.54 0 0 1 1.289 1.09c.344.413.808 1.257 1.394 2.53L89.79 45.5Zm-6.656-11.11c0-.75-.246-1.273-.739-1.57-.492-.297-1.292-.445-2.402-.445H78.96v3.914h1.055c1.195 0 2.011-.129 2.449-.387.445-.265.668-.77.668-1.511Zm24.023-5.132-6.363 8.8V45.5h-4.899v-7.348l-6.48-8.894H94.5l3.727 5.11 3.738-5.11h5.191Z"/>
</svg>
