<svg width="24.000000" height="24.000000" viewBox="0 0 24 24" fill="none" xmlns="http://www.w3.org/2000/svg" xmlns:xlink="http://www.w3.org/1999/xlink">
	<desc>
			Created with Pixso.
	</desc>
	<defs>
		<clipPath id="clip53_508">
			<rect id="menu" width="24.000000" height="24.000000" fill="white" fill-opacity="0"/>
		</clipPath>
	</defs>
	<rect id="menu" width="24.000000" height="24.000000" fill="#FFFFFF" fill-opacity="0"/>
	<g clip-path="url(#clip53_508)">
		<path id="Vector" d="M22 18.0059C22 18.5547 21.5542 19 21.0049 19L12.9951 19C12.731 19 12.478 18.8945 12.2915 18.709C12.105 18.5215 12 18.2695 12 18.0059C12 17.7402 12.105 17.4883 12.2915 17.3008C12.478 17.1152 12.731 17.0098 12.9951 17.0098L21.0049 17.0098C21.5552 17.0098 22 17.4551 22 18.0059ZM22 12C22 12.5508 21.5542 12.9941 21.0049 12.9941L2.99512 12.9941C2.73096 12.9941 2.47803 12.8906 2.2915 12.7031C2.10498 12.5176 2 12.2637 2 12C2 11.7363 2.10498 11.4824 2.2915 11.2969C2.47803 11.1094 2.73096 11.0059 2.99512 11.0059L21.0049 11.0059C21.5552 11.0059 22 11.4512 22 12ZM21.0049 6.99023C21.269 6.99023 21.522 6.88477 21.7085 6.69922C21.895 6.51172 22 6.25977 22 5.99414C22 5.73047 21.895 5.47852 21.7085 5.29102C21.522 5.10547 21.269 5 21.0049 5L8.99512 5C8.86426 5 8.73486 5.02539 8.61426 5.07617C8.49365 5.125 8.38379 5.19922 8.2915 5.29102C8.19922 5.38477 8.12598 5.49414 8.07568 5.61328C8.02588 5.73438 8 5.86523 8 5.99414C8 6.125 8.02588 6.25586 8.07568 6.375C8.12598 6.49609 8.19922 6.60547 8.2915 6.69922C8.38379 6.79102 8.49365 6.86328 8.61426 6.91406C8.73486 6.96484 8.86426 6.99023 8.99512 6.99023L21.0049 6.99023Z" fill="#FAF4EA" fill-opacity="1.000000" fill-rule="nonzero"/>
	</g>
</svg>
